Coordinates
version=1
nRows=24
nColumns=38
inDegrees=no

Units are S.I. units (second, meters, Newtons, ...)
If the header above contains a line with 'inDegrees', this indicates whether rotational values are in degrees (yes) or radians (no).

endheader
time	pelvis_tilt	pelvis_list	pelvis_rotation	pelvis_tx	pelvis_ty	pelvis_tz	hip_flexion_r	hip_adduction_r	hip_rotation_r	knee_angle_r	ankle_angle_r	subtalar_angle_r	mtp_angle_r	hip_flexion_l	hip_adduction_l	hip_rotation_l	knee_angle_l	ankle_angle_l	subtalar_angle_l	mtp_angle_l	lumbar_extension	lumbar_bending	lumbar_rotation	arm_flex_r	arm_add_r	arm_rot_r	elbow_flex_r	pro_sup_r	wrist_flex_r	wrist_dev_r	arm_flex_l	arm_add_l	arm_rot_l	elbow_flex_l	pro_sup_l	wrist_flex_l	wrist_dev_l
0.691667	-0.0338941	0.0445365	-0.0280618	1.04965	0.961201	-0.331609	0.755979	-0.0567678	-0.102054	-1.65404	0.0983144	0.0584262	0.000246273	0.113231	0.188563	0.130868	-0.708269	0.367421	0.00597459	0.00053478	-0.262439	-0.0487872	-0.216974	-0.614531	-0.0896236	-0.293031	1.31196	1.26803	0.0308973	-0.0461841	-0.397341	-0.290661	-0.0415671	2.31606	1.58418	0.0497249	-0.057201
0.7	-0.0435613	0.0293425	-0.0320092	1.05108	0.967514	-0.331654	0.772054	-0.0452669	-0.119644	-1.57654	0.0963636	0.0584262	0.000246273	0.0757922	0.169218	0.129152	-0.666719	0.316694	0.00597459	0.00053478	-0.248298	-0.0273159	-0.22295	-0.63213	-0.0907178	-0.310149	1.32988	1.26821	0.0308973	-0.0461841	-0.392658	-0.286137	-0.0338001	2.34763	1.59136	0.0497249	-0.057201
0.708333	-0.0528897	0.0143806	-0.0376028	1.05283	0.974223	-0.331556	0.782071	-0.03192	-0.134937	-1.4914	0.0905507	0.0584262	0.000246273	0.0389976	0.149545	0.122688	-0.624035	0.256829	0.00597459	0.00053478	-0.234276	-0.00640309	-0.2261	-0.649854	-0.0929888	-0.325256	1.34782	1.27059	0.0308973	-0.0461841	-0.3905	-0.281564	-0.0249977	2.3777	1.59966	0.0497249	-0.057201
0.716667	-0.0615334	5.06102e-05	-0.044653	1.05483	0.98118	-0.33131	0.785859	-0.0166663	-0.146724	-1.39913	0.0804609	0.0584262	0.000246273	0.00314692	0.13031	0.111869	-0.581495	0.189364	0.00597459	0.00053478	-0.220936	0.0134906	-0.226697	-0.667438	-0.0962473	-0.338247	1.36528	1.27394	0.0308973	-0.0461841	-0.390508	-0.277153	-0.0149296	2.40586	1.60811	0.0497249	-0.057201
0.725	-0.069141	-0.0131983	-0.0528122	1.05703	0.988237	-0.330933	0.783338	0.000183299	-0.154075	-1.3004	0.0660309	0.0584262	0.000246273	-0.0315221	0.112361	0.0975654	-0.54045	0.116456	0.00597459	0.00053478	-0.20878	0.031885	-0.225186	-0.684689	-0.100232	-0.349163	1.38201	1.27701	0.0308973	-0.0461841	-0.392353	-0.2731	-0.00348794	2.43187	1.61578	0.0497249	-0.057201
0.733333	-0.0754036	-0.0248579	-0.061623	1.05937	0.99524	-0.330458	0.774606	0.0179109	-0.156461	-1.19609	0.0476452	0.0584262	0.000246273	-0.0647945	0.096599	0.0810397	-0.502268	0.0407366	0.00597459	0.00053478	-0.19819	0.0482558	-0.22213	-0.701485	-0.104635	-0.358161	1.39793	1.27878	0.0308973	-0.0461841	-0.395752	-0.269591	0.00929245	2.45556	1.62192	0.0497249	-0.057201
0.741667	-0.0801143	-0.0343807	-0.070574	1.0618	1.00203	-0.329932	0.760045	0.0354486	-0.153857	-1.08749	0.0261555	0.0584262	0.000246273	-0.0964139	0.0839228	0.0638212	-0.468307	-0.0349104	0.00597459	0.00053478	-0.189367	0.0620481	-0.218143	-0.717761	-0.109126	-0.365465	1.41308	1.27857	0.0308973	-0.0461841	-0.400468	-0.266795	0.0232322	2.47685	1.62599	0.0497249	-0.057201
0.75	-0.0832085	-0.0412306	-0.0791609	1.06428	1.00845	-0.329411	0.740416	0.0515248	-0.146794	-0.976307	0.0028011	0.0584262	0.000246273	-0.126011	0.0751417	0.0475537	-0.439884	-0.107607	0.00597459	0.00053478	-0.182291	0.0727371	-0.213822	-0.733489	-0.113382	-0.371337	1.42753	1.27621	0.0308973	-0.0461841	-0.406312	-0.264856	0.0380201	2.49563	1.62775	0.0497249	-0.057201
0.758333	-0.0847991	-0.0449668	-0.0869454	1.06677	1.01435	-0.328948	0.716893	0.0648695	-0.136341	-0.864726	-0.0209652	0.0584262	0.000246273	-0.153057	0.0708774	0.0338161	-0.418267	-0.174729	0.00597459	0.00053478	-0.176723	0.0799139	-0.209665	-0.748655	-0.117105	-0.376046	1.44137	1.27199	0.0308973	-0.0461841	-0.413133	-0.263867	0.0532377	2.51178	1.62726	0.0497249	-0.057201
0.766667	-0.0851653	-0.0453389	-0.0936037	1.06921	1.01959	-0.328593	0.690997	0.0744379	-0.123999	-0.755326	-0.0437179	0.0584262	0.000246273	-0.176866	0.0714704	0.0239344	-0.404677	-0.234103	0.00597459	0.00053478	-0.172267	0.0833787	-0.206011	-0.763229	-0.12004	-0.379852	1.45465	1.26667	0.0308973	-0.0461841	-0.420797	-0.263855	0.0683951	2.52511	1.62484	0.0497249	-0.057201
0.775	-0.0846896	-0.0423599	-0.0989646	1.07157	1.02406	-0.32839	0.664435	0.0796045	-0.111515	-0.650917	-0.0643148	0.0584262	0.000246273	-0.196652	0.0769082	0.0187949	-0.400268	-0.284138	0.00597459	0.00053478	-0.168477	0.0832179	-0.202989	-0.777133	-0.122	-0.382973	1.46735	1.26121	0.0308973	-0.0461841	-0.42917	-0.26477	0.0829718	2.53538	1.62101	0.0497249	-0.057201
0.783333	-0.0837503	-0.0363554	-0.103025	1.0738	1.02769	-0.32837	0.638853	0.0802855	-0.100612	-0.554294	-0.0821099	0.0584262	0.000246273	-0.211654	0.0867956	0.018692	-0.406072	-0.323913	0.00597459	0.00053478	-0.165006	0.0798376	-0.200502	-0.790217	-0.122883	-0.385563	1.47937	1.25652	0.0308973	-0.0461841	-0.4381	-0.266474	0.096466	2.54231	1.6164	0.0497249	-0.057201
0.791667	-0.0826181	-0.0279659	-0.105946	1.07586	1.03046	-0.328538	0.615568	0.0769479	-0.0927012	-0.467958	-0.0970616	0.0584262	0.000246273	-0.221283	0.10038	0.0232442	-0.422904	-0.353217	0.00597459	0.00053478	-0.161725	0.0739334	-0.19825	-0.802249	-0.122694	-0.387693	1.49057	1.25326	0.0308973	-0.0461841	-0.447409	-0.268745	0.108442	2.54563	1.61167	0.0497249	-0.057201
0.8	-0.0813715	-0.01807	-0.108014	1.07769	1.03241	-0.328869	0.595362	0.070518	-0.0886209	-0.393852	-0.109697	0.0584262	0.000246273	-0.225258	0.116617	0.0314045	-0.45122	-0.372566	0.00597459	0.00053478	-0.15879	0.0664132	-0.195801	-0.812926	-0.121554	-0.389345	1.50075	1.25174	0.0308973	-0.0461841	-0.456911	-0.271284	0.118566	2.54506	1.60747	0.0497249	-0.057201
0.808333	-0.079857	-0.0076689	-0.109595	1.07927	1.03358	-0.329321	0.578394	0.0622146	-0.088452	-0.333199	-0.12093	0.0584262	0.000246273	-0.223708	0.134268	0.0415832	-0.490975	-0.383177	0.00597459	0.00053478	-0.156626	0.0582785	-0.192672	-0.82191	-0.119701	-0.390423	1.50971	1.25194	0.0308973	-0.0461841	-0.466436	-0.27373	0.126635	2.54042	1.60439	0.0497249	-0.057201
0.816667	-0.0777231	0.00224595	-0.111063	1.08057	1.03407	-0.32983	0.564241	0.0533521	-0.0914627	-0.286477	-0.131771	0.0584262	0.000246273	-0.217205	0.152007	0.0518631	-0.54152	-0.386866	0.00597459	0.00053478	-0.155845	0.0504965	-0.188432	-0.828878	-0.117472	-0.390779	1.51728	1.25353	0.0308973	-0.0461841	-0.47587	-0.27569	0.132561	2.53163	1.60292	0.0497249	-0.057201
0.825	-0.0744925	0.0107966	-0.112742	1.08159	1.03393	-0.330326	0.552065	0.0451609	-0.0962402	-0.253517	-0.142985	0.0584262	0.000246273	-0.206703	0.168513	0.0602253	-0.60163	-0.385823	0.00597459	0.00053478	-0.157119	0.0438922	-0.182776	-0.833574	-0.115273	-0.390227	1.52333	1.25588	0.0308973	-0.0461841	-0.485193	-0.276781	0.136358	2.51876	1.60348	0.0497249	-0.057201
0.833333	-0.0696825	0.0172912	-0.114859	1.08237	1.03325	-0.33074	0.540839	0.0386553	-0.10092	-0.233678	-0.154812	0.0584262	0.000246273	-0.193382	0.182567	0.0648373	-0.669639	-0.382305	0.00597459	0.00053478	-0.161032	0.0390694	-0.175565	-0.835837	-0.113532	-0.388567	1.52783	1.2582	0.0308973	-0.0461841	-0.494487	-0.276669	0.1381	2.50203	1.60633	0.0497249	-0.057201
0.841667	-0.0629322	0.0212968	-0.117522	1.08294	1.03206	-0.331013	0.52959	0.0345769	-0.103483	-0.226043	-0.166799	0.0584262	0.000246273	-0.178454	0.193133	0.0643361	-0.743661	-0.378316	0.00597459	0.00053478	-0.167947	0.0363914	-0.166838	-0.835614	-0.112649	-0.385613	1.53078	1.25964	0.0308973	-0.0461841	-0.503931	-0.27512	0.137893	2.48179	1.61162	0.0497249	-0.057201
0.85	-0.0540886	0.0226448	-0.120703	1.08336	1.03039	-0.331109	0.517591	0.0333861	-0.102086	-0.229578	-0.177766	0.0584262	0.000246273	-0.162949	0.199447	0.0580378	-0.821831	-0.375314	0.00597459	0.00053478	-0.177914	0.0359877	-0.156794	-0.832941	-0.112945	-0.381207	1.53224	1.25944	0.0308973	-0.0461841	-0.513762	-0.272025	0.135857	2.45847	1.61928	0.0497249	-0.057201
0.858333	-0.0432625	0.0214044	-0.124249	1.08368	1.02823	-0.331013	0.50448	0.0352794	-0.095382	-0.243253	-0.185854	0.0584262	0.000246273	-0.147548	0.201098	0.0460304	-0.902517	-0.374038	0.00597459	0.00053478	-0.190627	0.0377806	-0.145751	-0.827916	-0.114625	-0.375239	1.53228	1.25707	0.0308973	-0.0461841	-0.52423	-0.26741	0.132118	2.43254	1.62905	0.0497249	-0.057201
0.866667	-0.0308381	0.0178531	-0.127903	1.08395	1.02555	-0.330734	0.490308	0.0402142	-0.0827727	-0.26613	-0.188664	0.0584262	0.000246273	-0.132495	0.198072	0.029148	-0.984444	-0.374458	0.00597459	0.00053478	-0.205451	0.0415223	-0.134113	-0.820656	-0.117755	-0.367658	1.53092	1.25238	0.0308973	-0.0461841	-0.535544	-0.261422	0.126808	2.40443	1.64043	0.0497249	-0.057201
0.875	-0.017434	0.0124454	-0.131336	1.08421	1.02226	-0.330303	0.475522	0.0479275	-0.0645405	-0.297415	-0.183478	0.0584262	0.000246273	-0.117586	0.190783	0.00884441	-1.06673	-0.375882	0.00597459	0.00053478	-0.221493	0.0468288	-0.12232	-0.81126	-0.122254	-0.358464	1.52815	1.24567	0.0308973	-0.0461841	-0.547823	-0.254311	0.120061	2.37448	1.65272	0.0497249	-0.057201
0.883333	-0.00382227	0.00577694	-0.134178	1.08447	1.01832	-0.329766	0.460874	0.0579485	-0.0418701	-0.336438	-0.167615	0.0584262	0.000246273	-0.102235	0.180024	-0.0130506	-1.14885	-0.377162	0.00597459	0.00053478	-0.237713	0.0532137	-0.110814	-0.799776	-0.127909	-0.347692	1.52385	1.2376	0.0308973	-0.0461841	-0.561064	-0.246395	0.112008	2.34291	1.66511	0.0497249	-0.057201
